<?xml version="1.0" encoding="UTF-8" standalone="no"?>
<svg
   xmlns:dc="http://purl.org/dc/elements/1.1/"
   xmlns:cc="http://creativecommons.org/ns#"
   xmlns:rdf="http://www.w3.org/1999/02/22-rdf-syntax-ns#"
   xmlns:svg="http://www.w3.org/2000/svg"
   xmlns="http://www.w3.org/2000/svg"
   xmlns:sodipodi="http://sodipodi.sourceforge.net/DTD/sodipodi-0.dtd"
   xmlns:inkscape="http://www.inkscape.org/namespaces/inkscape"
   inkscape:version="1.0 (4035a4fb49, 2020-05-01)"
   sodipodi:docname="eff_cost.svg"
   viewBox="0 0 566.49982 469.31168"
   height="469.31168"
   width="566.49982"
   xml:space="preserve"
   id="svg17038"
   version="1.1"><metadata
     id="metadata17044"><rdf:RDF><cc:Work
         rdf:about=""><dc:format>image/svg+xml</dc:format><dc:type
           rdf:resource="http://purl.org/dc/dcmitype/StillImage" /><dc:title></dc:title></cc:Work></rdf:RDF></metadata><defs
     id="defs17042"><clipPath
       id="clipPath17060"
       clipPathUnits="userSpaceOnUse"><path
         id="path17058"
         d="M 66.028125,37.54375 H 335.17416 v 307.24 H 66.028125 Z" /></clipPath><clipPath
       id="clipPath17070"
       clipPathUnits="userSpaceOnUse"><path
         id="path17068"
         d="m -3.75,-3.75 h 7.5 v 7.5 h -7.5 z" /></clipPath><clipPath
       id="clipPath17082"
       clipPathUnits="userSpaceOnUse"><path
         id="path17080"
         d="m -3.75,-3.75 h 7.5 v 7.5 h -7.5 z" /></clipPath><clipPath
       id="clipPath17094"
       clipPathUnits="userSpaceOnUse"><path
         id="path17092"
         d="m -3.75,-3.75 h 7.5 v 7.5 h -7.5 z" /></clipPath></defs><sodipodi:namedview
     inkscape:current-layer="g17046"
     inkscape:window-maximized="0"
     inkscape:window-y="29"
     inkscape:window-x="5"
     inkscape:cy="240.21307"
     inkscape:cx="338.92993"
     inkscape:zoom="0.80607866"
     showgrid="false"
     id="namedview17040"
     inkscape:window-height="730"
     inkscape:window-width="1010"
     inkscape:pageshadow="2"
     inkscape:pageopacity="0"
     guidetolerance="10"
     gridtolerance="10"
     objecttolerance="10"
     borderopacity="1"
     bordercolor="#666666"
     pagecolor="#ffffff" /><g
     transform="matrix(1.3333333,0,0,-1.3333333,0,469.31167)"
     inkscape:label="eff_cost"
     inkscape:groupmode="layer"
     id="g17046"><g
       id="g17052" /><g
       id="g17054"><g
         clip-path="url(#clipPath17060)"
         id="g17056"><g
           transform="translate(78.262036,51.509205)"
           id="g17062"><g
             id="g17064"><g
               clip-path="url(#clipPath17070)"
               id="g17066"><path
                 id="path17072"
                 style="fill:#1f77b4;fill-opacity:1;fill-rule:nonzero;stroke:#ffffff;stroke-width:0.75;stroke-linecap:butt;stroke-linejoin:round;stroke-miterlimit:10;stroke-dasharray:none;stroke-opacity:1"
                 d="m 0,-3 c 0.795609,0 1.55874,0.316099 2.12132,0.87868 C 2.683901,-1.55874 3,-0.795609 3,0 3,0.795609 2.683901,1.55874 2.12132,2.12132 1.55874,2.683901 0.795609,3 0,3 -0.795609,3 -1.55874,2.683901 -2.12132,2.12132 -2.683901,1.55874 -3,0.795609 -3,0 -3,-0.795609 -2.683901,-1.55874 -2.12132,-2.12132 -1.55874,-2.683901 -0.795609,-3 0,-3 Z" /></g></g><g
             transform="translate(244.67821,279.30909)"
             id="g17074"><g
               id="g17076"><g
                 clip-path="url(#clipPath17082)"
                 id="g17078"><path
                   id="path17084"
                   style="fill:#ff7f0e;fill-opacity:1;fill-rule:nonzero;stroke:#ffffff;stroke-width:0.75;stroke-linecap:butt;stroke-linejoin:round;stroke-miterlimit:10;stroke-dasharray:none;stroke-opacity:1"
                   d="m 0,-3 c 0.795609,0 1.55874,0.316099 2.12132,0.87868 C 2.683901,-1.55874 3,-0.795609 3,0 3,0.795609 2.683901,1.55874 2.12132,2.12132 1.55874,2.683901 0.795609,3 0,3 -0.795609,3 -1.55874,2.683901 -2.12132,2.12132 -2.683901,1.55874 -3,0.795609 -3,0 -3,-0.795609 -2.683901,-1.55874 -2.12132,-2.12132 -1.55874,-2.683901 -0.795609,-3 0,-3 Z" /></g></g><g
               transform="translate(-109.0126,-134.04706)"
               id="g17086"><g
                 id="g17088"><g
                   clip-path="url(#clipPath17094)"
                   id="g17090"><path
                     id="path17096"
                     style="fill:#2ca02c;fill-opacity:1;fill-rule:nonzero;stroke:#ffffff;stroke-width:0.75;stroke-linecap:butt;stroke-linejoin:round;stroke-miterlimit:10;stroke-dasharray:none;stroke-opacity:1"
                     d="m 0,-3 c 0.795609,0 1.55874,0.316099 2.12132,0.87868 C 2.683901,-1.55874 3,-0.795609 3,0 3,0.795609 2.683901,1.55874 2.12132,2.12132 1.55874,2.683901 0.795609,3 0,3 -0.795609,3 -1.55874,2.683901 -2.12132,2.12132 -2.683901,1.55874 -3,0.795609 -3,0 -3,-0.795609 -2.683901,-1.55874 -2.12132,-2.12132 -1.55874,-2.683901 -0.795609,-3 0,-3 Z" /></g></g></g></g></g></g></g><path
       id="path17098"
       style="fill:#000000;fill-opacity:1;fill-rule:nonzero;stroke:#000000;stroke-width:0.8;stroke-linecap:butt;stroke-linejoin:round;stroke-miterlimit:10;stroke-dasharray:none;stroke-opacity:1"
       d="m 74.167235,37.54375 v -3.5" /><text
       id="text17102"
       style="font-variant:normal;font-weight:normal;font-size:10px;font-family:'DejaVu Sans';-inkscape-font-specification:DejaVuSans;writing-mode:lr-tb;fill:#000000;fill-opacity:1;fill-rule:nonzero;stroke:none"
       transform="matrix(1,0,0,-1,58.268798,22.95)"><tspan
         id="tspan17100"
         sodipodi:role="line"
         y="0"
         x="0 6.3600001 12.72 19.08 25.440001">16000</tspan></text><path
       id="path17104"
       style="fill:#000000;fill-opacity:1;fill-rule:nonzero;stroke:#000000;stroke-width:0.8;stroke-linecap:butt;stroke-linejoin:round;stroke-miterlimit:10;stroke-dasharray:none;stroke-opacity:1"
       d="m 124.79846,37.54375 v -3.5" /><text
       id="text17108"
       style="font-variant:normal;font-weight:normal;font-size:10px;font-family:'DejaVu Sans';-inkscape-font-specification:DejaVuSans;writing-mode:lr-tb;fill:#000000;fill-opacity:1;fill-rule:nonzero;stroke:none"
       transform="matrix(1,0,0,-1,108.90003,22.95)"><tspan
         id="tspan17106"
         sodipodi:role="line"
         y="0"
         x="0 6.3600001 12.72 19.08 25.440001">18000</tspan></text><path
       id="path17110"
       style="fill:#000000;fill-opacity:1;fill-rule:nonzero;stroke:#000000;stroke-width:0.8;stroke-linecap:butt;stroke-linejoin:round;stroke-miterlimit:10;stroke-dasharray:none;stroke-opacity:1"
       d="m 175.42969,37.54375 v -3.5" /><text
       id="text17114"
       style="font-variant:normal;font-weight:normal;font-size:10px;font-family:'DejaVu Sans';-inkscape-font-specification:DejaVuSans;writing-mode:lr-tb;fill:#000000;fill-opacity:1;fill-rule:nonzero;stroke:none"
       transform="matrix(1,0,0,-1,159.53125,22.95)"><tspan
         id="tspan17112"
         sodipodi:role="line"
         y="0"
         x="0 6.3600001 12.72 19.08 25.440001">20000</tspan></text><path
       id="path17116"
       style="fill:#000000;fill-opacity:1;fill-rule:nonzero;stroke:#000000;stroke-width:0.8;stroke-linecap:butt;stroke-linejoin:round;stroke-miterlimit:10;stroke-dasharray:none;stroke-opacity:1"
       d="m 226.06092,37.54375 v -3.5" /><text
       id="text17120"
       style="font-variant:normal;font-weight:normal;font-size:10px;font-family:'DejaVu Sans';-inkscape-font-specification:DejaVuSans;writing-mode:lr-tb;fill:#000000;fill-opacity:1;fill-rule:nonzero;stroke:none"
       transform="matrix(1,0,0,-1,210.16248,22.95)"><tspan
         id="tspan17118"
         sodipodi:role="line"
         y="0"
         x="0 6.3600001 12.72 19.08 25.440001">22000</tspan></text><path
       id="path17122"
       style="fill:#000000;fill-opacity:1;fill-rule:nonzero;stroke:#000000;stroke-width:0.8;stroke-linecap:butt;stroke-linejoin:round;stroke-miterlimit:10;stroke-dasharray:none;stroke-opacity:1"
       d="m 276.69215,37.54375 v -3.5" /><text
       id="text17126"
       style="font-variant:normal;font-weight:normal;font-size:10px;font-family:'DejaVu Sans';-inkscape-font-specification:DejaVuSans;writing-mode:lr-tb;fill:#000000;fill-opacity:1;fill-rule:nonzero;stroke:none"
       transform="matrix(1,0,0,-1,260.79371,22.95)"><tspan
         id="tspan17124"
         sodipodi:role="line"
         y="0"
         x="0 6.3600001 12.72 19.08 25.440001">24000</tspan></text><path
       id="path17128"
       style="fill:#000000;fill-opacity:1;fill-rule:nonzero;stroke:#000000;stroke-width:0.8;stroke-linecap:butt;stroke-linejoin:round;stroke-miterlimit:10;stroke-dasharray:none;stroke-opacity:1"
       d="m 327.32337,37.54375 v -3.5" /><text
       id="text17132"
       style="font-variant:normal;font-weight:normal;font-size:10px;font-family:'DejaVu Sans';-inkscape-font-specification:DejaVuSans;writing-mode:lr-tb;fill:#000000;fill-opacity:1;fill-rule:nonzero;stroke:none"
       transform="matrix(1,0,0,-1,311.42494,22.95)"><tspan
         id="tspan17130"
         sodipodi:role="line"
         y="0"
         x="0 6.3600001 12.72 19.08 25.440001">26000</tspan></text><text
       id="text17136"
       style="font-variant:normal;font-weight:normal;font-size:10px;font-family:'DejaVu Sans';-inkscape-font-specification:DejaVuSans;writing-mode:lr-tb;fill:#000000;fill-opacity:1;fill-rule:nonzero;stroke:none"
       transform="matrix(1,0,0,-1,170.35114,9.278125)"><tspan
         id="tspan17134"
         sodipodi:role="line"
         y="0"
         x="0 2.95 6.8699999 13.02 22.76 27.969999 31.15 33.93 40.080002 46.209999 50.32 56.66">Items learnt</tspan></text><path
       id="path17138"
       style="fill:#000000;fill-opacity:1;fill-rule:nonzero;stroke:#000000;stroke-width:0.8;stroke-linecap:butt;stroke-linejoin:round;stroke-miterlimit:10;stroke-dasharray:none;stroke-opacity:1"
       d="m 66.028125,38.752854 h -3.5" /><text
       id="text17142"
       style="font-variant:normal;font-weight:normal;font-size:10px;font-family:'DejaVu Sans';-inkscape-font-specification:DejaVuSans;writing-mode:lr-tb;fill:#000000;fill-opacity:1;fill-rule:nonzero;stroke:none"
       transform="matrix(1,0,0,-1,20.871875,34.955979)"><tspan
         id="tspan17140"
         sodipodi:role="line"
         y="0"
         x="0 6.3600001 12.72 19.08 25.440001 31.799999">180000</tspan></text><path
       id="path17144"
       style="fill:#000000;fill-opacity:1;fill-rule:nonzero;stroke:#000000;stroke-width:0.8;stroke-linecap:butt;stroke-linejoin:round;stroke-miterlimit:10;stroke-dasharray:none;stroke-opacity:1"
       d="m 66.028125,97.037357 h -3.5" /><text
       id="text17148"
       style="font-variant:normal;font-weight:normal;font-size:10px;font-family:'DejaVu Sans';-inkscape-font-specification:DejaVuSans;writing-mode:lr-tb;fill:#000000;fill-opacity:1;fill-rule:nonzero;stroke:none"
       transform="matrix(1,0,0,-1,20.871875,93.240482)"><tspan
         id="tspan17146"
         sodipodi:role="line"
         y="0"
         x="0 6.3600001 12.72 19.08 25.440001 31.799999">200000</tspan></text><path
       id="path17150"
       style="fill:#000000;fill-opacity:1;fill-rule:nonzero;stroke:#000000;stroke-width:0.8;stroke-linecap:butt;stroke-linejoin:round;stroke-miterlimit:10;stroke-dasharray:none;stroke-opacity:1"
       d="m 66.028125,155.32186 h -3.5" /><text
       id="text17154"
       style="font-variant:normal;font-weight:normal;font-size:10px;font-family:'DejaVu Sans';-inkscape-font-specification:DejaVuSans;writing-mode:lr-tb;fill:#000000;fill-opacity:1;fill-rule:nonzero;stroke:none"
       transform="matrix(1,0,0,-1,20.871875,151.52499)"><tspan
         id="tspan17152"
         sodipodi:role="line"
         y="0"
         x="0 6.3600001 12.72 19.08 25.440001 31.799999">220000</tspan></text><path
       id="path17156"
       style="fill:#000000;fill-opacity:1;fill-rule:nonzero;stroke:#000000;stroke-width:0.8;stroke-linecap:butt;stroke-linejoin:round;stroke-miterlimit:10;stroke-dasharray:none;stroke-opacity:1"
       d="m 66.028125,213.60636 h -3.5" /><text
       id="text17160"
       style="font-variant:normal;font-weight:normal;font-size:10px;font-family:'DejaVu Sans';-inkscape-font-specification:DejaVuSans;writing-mode:lr-tb;fill:#000000;fill-opacity:1;fill-rule:nonzero;stroke:none"
       transform="matrix(1,0,0,-1,20.871875,209.80949)"><tspan
         id="tspan17158"
         sodipodi:role="line"
         y="0"
         x="0 6.3600001 12.72 19.08 25.440001 31.799999">240000</tspan></text><path
       id="path17162"
       style="fill:#000000;fill-opacity:1;fill-rule:nonzero;stroke:#000000;stroke-width:0.8;stroke-linecap:butt;stroke-linejoin:round;stroke-miterlimit:10;stroke-dasharray:none;stroke-opacity:1"
       d="m 66.028125,271.89087 h -3.5" /><text
       id="text17166"
       style="font-variant:normal;font-weight:normal;font-size:10px;font-family:'DejaVu Sans';-inkscape-font-specification:DejaVuSans;writing-mode:lr-tb;fill:#000000;fill-opacity:1;fill-rule:nonzero;stroke:none"
       transform="matrix(1,0,0,-1,20.871875,268.09399)"><tspan
         id="tspan17164"
         sodipodi:role="line"
         y="0"
         x="0 6.3600001 12.72 19.08 25.440001 31.799999">260000</tspan></text><path
       id="path17168"
       style="fill:#000000;fill-opacity:1;fill-rule:nonzero;stroke:#000000;stroke-width:0.8;stroke-linecap:butt;stroke-linejoin:round;stroke-miterlimit:10;stroke-dasharray:none;stroke-opacity:1"
       d="m 66.028125,330.17537 h -3.5" /><text
       id="text17172"
       style="font-variant:normal;font-weight:normal;font-size:10px;font-family:'DejaVu Sans';-inkscape-font-specification:DejaVuSans;writing-mode:lr-tb;fill:#000000;fill-opacity:1;fill-rule:nonzero;stroke:none"
       transform="matrix(1,0,0,-1,20.871875,326.3785)"><tspan
         id="tspan17170"
         sodipodi:role="line"
         y="0"
         x="0 6.3600001 12.72 19.08 25.440001 31.799999">280000</tspan></text><text
       id="text17176"
       style="font-variant:normal;font-weight:normal;font-size:10px;font-family:'DejaVu Sans';-inkscape-font-specification:DejaVuSans;writing-mode:lr-tb;fill:#000000;fill-opacity:1;fill-rule:nonzero;stroke:none"
       transform="matrix(0,1,1,0,14.79375,145.8825)"><tspan
         id="tspan17174"
         sodipodi:role="line"
         y="0"
         x="0 6.98 13.1 22.84 29.190001 35.529999 39.450001 45.580002 49.5 52.279999 58.400002 64.739998 67.919998 71.839996 74.620003 84.360001">Computation time</tspan></text><path
       id="path17178"
       style="fill:none;stroke:#000000;stroke-width:0.8;stroke-linecap:square;stroke-linejoin:miter;stroke-miterlimit:10;stroke-dasharray:none;stroke-opacity:1"
       d="m 66.028125,37.54375 v 307.24" /><path
       id="path17180"
       style="fill:none;stroke:#000000;stroke-width:0.8;stroke-linecap:square;stroke-linejoin:miter;stroke-miterlimit:10;stroke-dasharray:none;stroke-opacity:1"
       d="M 66.028125,37.54375 H 335.17416" /><text
       id="text17184"
       style="font-variant:normal;font-weight:normal;font-size:10px;font-family:'DejaVu Sans';-inkscape-font-specification:DejaVuSans;writing-mode:lr-tb;fill:#000000;fill-opacity:1;fill-rule:nonzero;stroke:none"
       transform="matrix(1,0,0,-1,368.78111,195.24187)"><tspan
         id="tspan17182"
         sodipodi:role="line"
         y="0"
         x="0 3.9200001 10.07 16.200001 21.700001 28.040001 34.189999">teacher</tspan></text><path
       id="path17186"
       style="fill:#1f77b4;fill-opacity:1;fill-rule:nonzero;stroke:#1f77b4;stroke-width:1;stroke-linecap:butt;stroke-linejoin:round;stroke-miterlimit:10;stroke-dasharray:none;stroke-opacity:1"
       d="m 350.78111,180.195 c 0.79561,0 1.55874,0.3161 2.12132,0.87868 0.56258,0.56258 0.87868,1.32571 0.87868,2.12132 0,0.79561 -0.3161,1.55874 -0.87868,2.12132 -0.56258,0.56258 -1.32571,0.87868 -2.12132,0.87868 -0.79561,0 -1.55874,-0.3161 -2.12132,-0.87868 -0.56258,-0.56258 -0.87868,-1.32571 -0.87868,-2.12132 0,-0.79561 0.3161,-1.55874 0.87868,-2.12132 0.56258,-0.56258 1.32571,-0.87868 2.12132,-0.87868 z" /><text
       id="text17190"
       style="font-variant:normal;font-weight:normal;font-size:10px;font-family:'DejaVu Sans';-inkscape-font-specification:DejaVuSans;writing-mode:lr-tb;fill:#000000;fill-opacity:1;fill-rule:nonzero;stroke:none"
       transform="matrix(1,0,0,-1,368.78111,180.57)"><tspan
         id="tspan17188"
         sodipodi:role="line"
         y="0"
         x="0 2.78 8.9300003 11.71 15.63 21.969999 28.120001">leitner</tspan></text><path
       id="path17192"
       style="fill:#ff7f0e;fill-opacity:1;fill-rule:nonzero;stroke:#ff7f0e;stroke-width:1;stroke-linecap:butt;stroke-linejoin:round;stroke-miterlimit:10;stroke-dasharray:none;stroke-opacity:1"
       d="m 350.78111,165.52312 c 0.79561,0 1.55874,0.3161 2.12132,0.87868 0.56258,0.56258 0.87868,1.32572 0.87868,2.12132 0,0.79561 -0.3161,1.55874 -0.87868,2.12132 -0.56258,0.56259 -1.32571,0.87868 -2.12132,0.87868 -0.79561,0 -1.55874,-0.31609 -2.12132,-0.87868 -0.56258,-0.56258 -0.87868,-1.32571 -0.87868,-2.12132 0,-0.7956 0.3161,-1.55874 0.87868,-2.12132 0.56258,-0.56258 1.32571,-0.87868 2.12132,-0.87868 z" /><text
       id="text17196"
       style="font-variant:normal;font-weight:normal;font-size:10px;font-family:'DejaVu Sans';-inkscape-font-specification:DejaVuSans;writing-mode:lr-tb;fill:#000000;fill-opacity:1;fill-rule:nonzero;stroke:none"
       transform="matrix(1,0,0,-1,368.78111,165.89813)"><tspan
         id="tspan17194"
         sodipodi:role="line"
         y="0"
         x="0 5.21 11.34 21.08 27.43 30.209999 32.990002 39.330002">sampling</tspan></text><path
       id="path17198"
       style="fill:#2ca02c;fill-opacity:1;fill-rule:nonzero;stroke:#2ca02c;stroke-width:1;stroke-linecap:butt;stroke-linejoin:round;stroke-miterlimit:10;stroke-dasharray:none;stroke-opacity:1"
       d="m 350.78111,150.85125 c 0.79561,0 1.55874,0.3161 2.12132,0.87868 0.56258,0.56258 0.87868,1.32571 0.87868,2.12132 0,0.79561 -0.3161,1.55874 -0.87868,2.12132 -0.56258,0.56258 -1.32571,0.87868 -2.12132,0.87868 -0.79561,0 -1.55874,-0.3161 -2.12132,-0.87868 -0.56258,-0.56258 -0.87868,-1.32571 -0.87868,-2.12132 0,-0.79561 0.3161,-1.55874 0.87868,-2.12132 0.56258,-0.56258 1.32571,-0.87868 2.12132,-0.87868 z" /><text
       id="text17202"
       style="font-variant:normal;font-weight:normal;font-size:10px;font-family:'DejaVu Sans';-inkscape-font-specification:DejaVuSans;writing-mode:lr-tb;fill:#000000;fill-opacity:1;fill-rule:nonzero;stroke:none"
       transform="matrix(1,0,0,-1,368.78111,151.22625)"><tspan
         id="tspan17200"
         sodipodi:role="line"
         y="0"
         x="0 3.9200001 10.26 14.37 20.52 25.73 32.07 38.189999 40.970001">threshold</tspan></text><rect
       transform="scale(1,-1)"
       y="-330.89719"
       x="303.64243"
       height="0.1564924"
       width="27.971632"
       id="rect18044"
       style="opacity:0.994;fill:#ff7f0e;fill-opacity:1;stroke:#ff7f0e;stroke-width:0.668976;stroke-linejoin:round;stroke-opacity:1" /><rect
       transform="matrix(0,-1,-1,0,0,0)"
       style="opacity:0.994;fill:#ff7f0e;fill-opacity:1;stroke:#ff7f0e;stroke-width:0.591501;stroke-linejoin:round;stroke-opacity:1"
       id="rect18044-6"
       width="24.291609"
       height="0.14087832"
       x="-336.57797"
       y="-323.09482" /><rect
       transform="scale(1,-1)"
       style="opacity:0.994;fill:#ff7f0e;fill-opacity:1;stroke:#2ca02c;stroke-width:0.640833;stroke-linejoin:round;stroke-opacity:1"
       id="rect18044-7"
       width="21.755281"
       height="0.1846354"
       x="201.48744"
       y="-196.94041" /><rect
       y="-214.03241"
       x="-203.84453"
       height="0.21644138"
       width="14.435342"
       id="rect18044-6-5"
       style="opacity:0.994;fill:#2ca02c;fill-opacity:1;stroke:#2ca02c;stroke-width:0.565183;stroke-linejoin:round;stroke-opacity:1"
       transform="matrix(0,-1,-1,0,0,0)" /><rect
       transform="scale(1,-1)"
       y="-51.587032"
       x="75.192879"
       height="0.28339079"
       width="10.142081"
       id="rect18044-7-3"
       style="opacity:0.994;fill:#ff7f0e;fill-opacity:1;stroke:#1f77b4;stroke-width:0.542078;stroke-linejoin:round;stroke-opacity:1" /><rect
       transform="matrix(0,-1,-1,0,0,0)"
       style="opacity:0.994;fill:#ff7f0e;fill-opacity:1;stroke:#1f77b4;stroke-width:0.448968;stroke-linejoin:round;stroke-opacity:1"
       id="rect18044-6-5-5"
       width="8.3883724"
       height="0.2350395"
       x="-55.397972"
       y="-78.271339" /></g></svg>
